ISO-10303-21;
HEADER;
FILE_DESCRIPTION(('STEP AP214'),'1');
FILE_NAME('Center_block.stp','2025-08-25T06:49:44',(' '),(' '),'Spatial InterOp 3D',' ',' ');
FILE_SCHEMA(('AUTOMOTIVE_DESIGN { 1 0 10303 214 1 1 1 1 }'));
ENDSEC;
DATA;
#1=PRODUCT_DEFINITION_CONTEXT('',#10,'design');
#2=APPLICATION_PROTOCOL_DEFINITION('INTERNATIONAL STANDARD','automotive_design',1994,#10);
#3=PRODUCT_CATEGORY_RELATIONSHIP('NONE','NONE',#11,#12);
#4=SHAPE_DEFINITION_REPRESENTATION(#13,#14);
#5=SHAPE_DEFINITION_REPRESENTATION(#13,#15);
#6= (GEOMETRIC_REPRESENTATION_CONTEXT(3)GLOBAL_UNCERTAINTY_ASSIGNED_CONTEXT((#18))GLOBAL_UNIT_ASSIGNED_CONTEXT((#20,#21,#22))REPRESENTATION_CONTEXT('NONE','WORKSPACE'));
#10=APPLICATION_CONTEXT(' ');
#11=PRODUCT_CATEGORY('part','NONE');
#12=PRODUCT_RELATED_PRODUCT_CATEGORY('detail',' ',(#24));
#13=PRODUCT_DEFINITION_SHAPE('NONE','NONE',#25);
#14=ADVANCED_BREP_SHAPE_REPRESENTATION('1',(#26,#27),#6);
#15=MANIFOLD_SURFACE_SHAPE_REPRESENTATION('2',(#28,#29),#6);
#18=UNCERTAINTY_MEASURE_WITH_UNIT(LENGTH_MEASURE(1.0E-06),#20,'','');
#20= (CONVERSION_BASED_UNIT('MILLIMETRE',#32)LENGTH_UNIT()NAMED_UNIT(#35));
#21= (NAMED_UNIT(#37)PLANE_ANGLE_UNIT()SI_UNIT($,.RADIAN.));
#22= (NAMED_UNIT(#37)SOLID_ANGLE_UNIT()SI_UNIT($,.STERADIAN.));
#24=PRODUCT('1','','PART--DESC',(#43));
#25=PRODUCT_DEFINITION('','NONE',#44,#1);
#26=MANIFOLD_SOLID_BREP('1',#45);
#27=AXIS2_PLACEMENT_3D('',#46,#47,#48);
#28=SHELL_BASED_SURFACE_MODEL('2',(#49));
#29=AXIS2_PLACEMENT_3D('',#50,#51,#52);
#32=LENGTH_MEASURE_WITH_UNIT(LENGTH_MEASURE(1.0),#53);
#35=DIMENSIONAL_EXPONENTS(1.0,0.0,0.0,0.0,0.0,0.0,0.0);
#37=DIMENSIONAL_EXPONENTS(0.0,0.0,0.0,0.0,0.0,0.0,0.0);
#43=PRODUCT_CONTEXT('',#10,'mechanical');
#44=PRODUCT_DEFINITION_FORMATION_WITH_SPECIFIED_SOURCE(' ','NONE',#24,.NOT_KNOWN.);
#45=CLOSED_SHELL('',(#54,#55,#56,#57,#58,#59,#60,#61,#62,#63,#64,#65,#66,#67,#68,#69,#70,#71));
#46=CARTESIAN_POINT('',(0.0,0.0,0.0));
#47=DIRECTION('',(0.0,0.0,1.0));
#48=DIRECTION('',(1.0,0.0,0.0));
#49=CLOSED_SHELL('',(#72));
#50=CARTESIAN_POINT('',(0.0,0.0,0.0));
#51=DIRECTION('',(0.0,0.0,1.0));
#52=DIRECTION('',(1.0,0.0,0.0));
#53= (NAMED_UNIT(#35)LENGTH_UNIT()SI_UNIT(.MILLI.,.METRE.));
#54=ADVANCED_FACE('',(#74),#75,.F.);
#55=ADVANCED_FACE('',(#76),#77,.T.);
#56=ADVANCED_FACE('',(#78),#79,.T.);
#57=ADVANCED_FACE('',(#80),#81,.T.);
#58=ADVANCED_FACE('',(#82),#83,.T.);
#59=ADVANCED_FACE('',(#84),#85,.T.);
#60=ADVANCED_FACE('',(#86),#87,.T.);
#61=ADVANCED_FACE('',(#88),#89,.T.);
#62=ADVANCED_FACE('',(#90),#91,.T.);
#63=ADVANCED_FACE('',(#92),#93,.F.);
#64=ADVANCED_FACE('',(#94),#95,.T.);
#65=ADVANCED_FACE('',(#96),#97,.T.);
#66=ADVANCED_FACE('',(#98),#99,.T.);
#67=ADVANCED_FACE('',(#100),#101,.T.);
#68=ADVANCED_FACE('',(#102),#103,.T.);
#69=ADVANCED_FACE('',(#104),#105,.T.);
#70=ADVANCED_FACE('',(#106),#107,.T.);
#71=ADVANCED_FACE('',(#108),#109,.T.);
#72=FACE_SURFACE('',(#110),#111,.T.);
#74=FACE_OUTER_BOUND('',#112,.T.);
#75=PLANE('',#113);
#76=FACE_OUTER_BOUND('',#114,.T.);
#77=PLANE('',#115);
#78=FACE_OUTER_BOUND('',#116,.T.);
#79=PLANE('',#117);
#80=FACE_OUTER_BOUND('',#118,.T.);
#81=PLANE('',#119);
#82=FACE_OUTER_BOUND('',#120,.T.);
#83=PLANE('',#121);
#84=FACE_OUTER_BOUND('',#122,.T.);
#85=PLANE('',#123);
#86=FACE_OUTER_BOUND('',#124,.T.);
#87=PLANE('',#125);
#88=FACE_OUTER_BOUND('',#126,.T.);
#89=PLANE('',#127);
#90=FACE_OUTER_BOUND('',#128,.T.);
#91=PLANE('',#129);
#92=FACE_OUTER_BOUND('',#130,.T.);
#93=PLANE('',#131);
#94=FACE_OUTER_BOUND('',#132,.T.);
#95=PLANE('',#133);
#96=FACE_OUTER_BOUND('',#134,.T.);
#97=PLANE('',#135);
#98=FACE_OUTER_BOUND('',#136,.T.);
#99=PLANE('',#137);
#100=FACE_OUTER_BOUND('',#138,.T.);
#101=PLANE('',#139);
#102=FACE_OUTER_BOUND('',#140,.T.);
#103=PLANE('',#141);
#104=FACE_OUTER_BOUND('',#142,.T.);
#105=PLANE('',#143);
#106=FACE_OUTER_BOUND('',#144,.T.);
#107=PLANE('',#145);
#108=FACE_OUTER_BOUND('',#146,.T.);
#109=PLANE('',#147);
#110=FACE_BOUND('',#148,.T.);
#111=PLANE('',#149);
#112=EDGE_LOOP('',(#150,#151,#152,#153));
#113=AXIS2_PLACEMENT_3D('',#154,#155,#156);
#114=EDGE_LOOP('',(#157,#158,#159,#160));
#115=AXIS2_PLACEMENT_3D('',#161,#162,#163);
#116=EDGE_LOOP('',(#164,#165,#166,#167));
#117=AXIS2_PLACEMENT_3D('',#168,#169,#170);
#118=EDGE_LOOP('',(#171,#172,#173,#174));
#119=AXIS2_PLACEMENT_3D('',#175,#176,#177);
#120=EDGE_LOOP('',(#178,#179,#180,#181));
#121=AXIS2_PLACEMENT_3D('',#182,#183,#184);
#122=EDGE_LOOP('',(#185,#186,#187,#188));
#123=AXIS2_PLACEMENT_3D('',#189,#190,#191);
#124=EDGE_LOOP('',(#192,#193,#194,#195));
#125=AXIS2_PLACEMENT_3D('',#196,#197,#198);
#126=EDGE_LOOP('',(#199,#200,#201,#202));
#127=AXIS2_PLACEMENT_3D('',#203,#204,#205);
#128=EDGE_LOOP('',(#206,#207,#208,#209));
#129=AXIS2_PLACEMENT_3D('',#210,#211,#212);
#130=EDGE_LOOP('',(#213,#214,#215,#216));
#131=AXIS2_PLACEMENT_3D('',#217,#218,#219);
#132=EDGE_LOOP('',(#220,#221,#222,#223));
#133=AXIS2_PLACEMENT_3D('',#224,#225,#226);
#134=EDGE_LOOP('',(#227,#228,#229,#230,#231,#232,#233,#234));
#135=AXIS2_PLACEMENT_3D('',#235,#236,#237);
#136=EDGE_LOOP('',(#238,#239,#240,#241));
#137=AXIS2_PLACEMENT_3D('',#242,#243,#244);
#138=EDGE_LOOP('',(#245,#246,#247,#248));
#139=AXIS2_PLACEMENT_3D('',#249,#250,#251);
#140=EDGE_LOOP('',(#252,#253,#254,#255,#256,#257,#258,#259));
#141=AXIS2_PLACEMENT_3D('',#260,#261,#262);
#142=EDGE_LOOP('',(#263,#264,#265,#266));
#143=AXIS2_PLACEMENT_3D('',#267,#268,#269);
#144=EDGE_LOOP('',(#270,#271,#272,#273));
#145=AXIS2_PLACEMENT_3D('',#274,#275,#276);
#146=EDGE_LOOP('',(#277,#278,#279,#280));
#147=AXIS2_PLACEMENT_3D('',#281,#282,#283);
#148=EDGE_LOOP('',(#284,#285,#286,#287,#288,#289,#290,#291));
#149=AXIS2_PLACEMENT_3D('',#292,#293,#294);
#150=ORIENTED_EDGE('',*,*,#295,.T.);
#151=ORIENTED_EDGE('',*,*,#296,.F.);
#152=ORIENTED_EDGE('',*,*,#297,.T.);
#153=ORIENTED_EDGE('',*,*,#298,.F.);
#154=CARTESIAN_POINT('',(0.0,0.0,0.0));
#155=DIRECTION('',(0.0,0.0,1.0));
#156=DIRECTION('',(1.0,0.0,0.0));
#157=ORIENTED_EDGE('',*,*,#299,.T.);
#158=ORIENTED_EDGE('',*,*,#298,.T.);
#159=ORIENTED_EDGE('',*,*,#300,.T.);
#160=ORIENTED_EDGE('',*,*,#301,.T.);
#161=CARTESIAN_POINT('',(47.5,0.0,2.5));
#162=DIRECTION('',(0.707106781186548,0.0,-0.707106781186548));
#163=DIRECTION('',(-0.707106781186548,0.0,-0.707106781186548));
#164=ORIENTED_EDGE('',*,*,#302,.T.);
#165=ORIENTED_EDGE('',*,*,#301,.F.);
#166=ORIENTED_EDGE('',*,*,#303,.T.);
#167=ORIENTED_EDGE('',*,*,#304,.F.);
#168=CARTESIAN_POINT('',(50.0,0.0,0.0));
#169=DIRECTION('',(1.0,0.0,-0.0));
#170=DIRECTION('',(-0.0,1.0,0.0));
#171=ORIENTED_EDGE('',*,*,#305,.T.);
#172=ORIENTED_EDGE('',*,*,#304,.T.);
#173=ORIENTED_EDGE('',*,*,#306,.T.);
#174=ORIENTED_EDGE('',*,*,#307,.T.);
#175=CARTESIAN_POINT('',(47.5,0.0,57.5));
#176=DIRECTION('',(0.707106781186548,0.0,0.707106781186548));
#177=DIRECTION('',(0.707106781186548,0.0,-0.707106781186548));
#178=ORIENTED_EDGE('',*,*,#308,.T.);
#179=ORIENTED_EDGE('',*,*,#307,.F.);
#180=ORIENTED_EDGE('',*,*,#309,.F.);
#181=ORIENTED_EDGE('',*,*,#310,.F.);
#182=CARTESIAN_POINT('',(0.0,0.0,60.0));
#183=DIRECTION('',(0.0,0.0,1.0));
#184=DIRECTION('',(1.0,0.0,0.0));
#185=ORIENTED_EDGE('',*,*,#308,.F.);
#186=ORIENTED_EDGE('',*,*,#311,.F.);
#187=ORIENTED_EDGE('',*,*,#312,.F.);
#188=ORIENTED_EDGE('',*,*,#313,.F.);
#189=CARTESIAN_POINT('',(0.0,0.0,60.0));
#190=DIRECTION('',(0.0,0.0,1.0));
#191=DIRECTION('',(1.0,0.0,0.0));
#192=ORIENTED_EDGE('',*,*,#305,.F.);
#193=ORIENTED_EDGE('',*,*,#313,.T.);
#194=ORIENTED_EDGE('',*,*,#314,.T.);
#195=ORIENTED_EDGE('',*,*,#315,.T.);
#196=CARTESIAN_POINT('',(47.5,0.0,57.5));
#197=DIRECTION('',(0.707106781186548,0.0,0.707106781186548));
#198=DIRECTION('',(0.707106781186548,0.0,-0.707106781186548));
#199=ORIENTED_EDGE('',*,*,#302,.F.);
#200=ORIENTED_EDGE('',*,*,#315,.F.);
#201=ORIENTED_EDGE('',*,*,#316,.F.);
#202=ORIENTED_EDGE('',*,*,#317,.F.);
#203=CARTESIAN_POINT('',(50.0,0.0,0.0));
#204=DIRECTION('',(1.0,0.0,-0.0));
#205=DIRECTION('',(-0.0,1.0,0.0));
#206=ORIENTED_EDGE('',*,*,#299,.F.);
#207=ORIENTED_EDGE('',*,*,#317,.T.);
#208=ORIENTED_EDGE('',*,*,#318,.T.);
#209=ORIENTED_EDGE('',*,*,#319,.T.);
#210=CARTESIAN_POINT('',(47.5,0.0,2.5));
#211=DIRECTION('',(0.707106781186548,0.0,-0.707106781186548));
#212=DIRECTION('',(-0.707106781186548,0.0,-0.707106781186548));
#213=ORIENTED_EDGE('',*,*,#295,.F.);
#214=ORIENTED_EDGE('',*,*,#319,.F.);
#215=ORIENTED_EDGE('',*,*,#320,.T.);
#216=ORIENTED_EDGE('',*,*,#321,.F.);
#217=CARTESIAN_POINT('',(0.0,0.0,0.0));
#218=DIRECTION('',(0.0,0.0,1.0));
#219=DIRECTION('',(1.0,0.0,0.0));
#220=ORIENTED_EDGE('',*,*,#322,.T.);
#221=ORIENTED_EDGE('',*,*,#323,.T.);
#222=ORIENTED_EDGE('',*,*,#324,.T.);
#223=ORIENTED_EDGE('',*,*,#296,.T.);
#224=CARTESIAN_POINT('',(-47.5,0.0,2.5));
#225=DIRECTION('',(-0.707106781186548,0.0,-0.707106781186548));
#226=DIRECTION('',(-0.707106781186548,0.0,0.707106781186548));
#227=ORIENTED_EDGE('',*,*,#325,.F.);
#228=ORIENTED_EDGE('',*,*,#309,.T.);
#229=ORIENTED_EDGE('',*,*,#306,.F.);
#230=ORIENTED_EDGE('',*,*,#303,.F.);
#231=ORIENTED_EDGE('',*,*,#300,.F.);
#232=ORIENTED_EDGE('',*,*,#297,.F.);
#233=ORIENTED_EDGE('',*,*,#324,.F.);
#234=ORIENTED_EDGE('',*,*,#326,.T.);
#235=CARTESIAN_POINT('',(0.0,100.0,0.0));
#236=DIRECTION('',(0.0,1.0,0.0));
#237=DIRECTION('',(-1.0,0.0,0.0));
#238=ORIENTED_EDGE('',*,*,#327,.T.);
#239=ORIENTED_EDGE('',*,*,#310,.T.);
#240=ORIENTED_EDGE('',*,*,#325,.T.);
#241=ORIENTED_EDGE('',*,*,#328,.T.);
#242=CARTESIAN_POINT('',(-47.5,0.0,57.5));
#243=DIRECTION('',(-0.707106781186548,0.0,0.707106781186548));
#244=DIRECTION('',(0.707106781186548,-0.0,0.707106781186548));
#245=ORIENTED_EDGE('',*,*,#327,.F.);
#246=ORIENTED_EDGE('',*,*,#329,.T.);
#247=ORIENTED_EDGE('',*,*,#330,.T.);
#248=ORIENTED_EDGE('',*,*,#311,.T.);
#249=CARTESIAN_POINT('',(-47.5,0.0,57.5));
#250=DIRECTION('',(-0.707106781186548,0.0,0.707106781186548));
#251=DIRECTION('',(0.707106781186548,-0.0,0.707106781186548));
#252=ORIENTED_EDGE('',*,*,#330,.F.);
#253=ORIENTED_EDGE('',*,*,#331,.F.);
#254=ORIENTED_EDGE('',*,*,#332,.F.);
#255=ORIENTED_EDGE('',*,*,#320,.F.);
#256=ORIENTED_EDGE('',*,*,#318,.F.);
#257=ORIENTED_EDGE('',*,*,#316,.T.);
#258=ORIENTED_EDGE('',*,*,#314,.F.);
#259=ORIENTED_EDGE('',*,*,#312,.T.);
#260=CARTESIAN_POINT('',(0.0,-100.0,0.0));
#261=DIRECTION('',(0.0,-1.0,0.0));
#262=DIRECTION('',(1.0,0.0,-0.0));
#263=ORIENTED_EDGE('',*,*,#322,.F.);
#264=ORIENTED_EDGE('',*,*,#321,.T.);
#265=ORIENTED_EDGE('',*,*,#332,.T.);
#266=ORIENTED_EDGE('',*,*,#333,.T.);
#267=CARTESIAN_POINT('',(-47.5,0.0,2.5));
#268=DIRECTION('',(-0.707106781186548,0.0,-0.707106781186548));
#269=DIRECTION('',(-0.707106781186548,0.0,0.707106781186548));
#270=ORIENTED_EDGE('',*,*,#334,.T.);
#271=ORIENTED_EDGE('',*,*,#328,.F.);
#272=ORIENTED_EDGE('',*,*,#326,.F.);
#273=ORIENTED_EDGE('',*,*,#323,.F.);
#274=CARTESIAN_POINT('',(-50.0,0.0,0.0));
#275=DIRECTION('',(-1.0,-0.0,0.0));
#276=DIRECTION('',(0.0,-1.0,-0.0));
#277=ORIENTED_EDGE('',*,*,#334,.F.);
#278=ORIENTED_EDGE('',*,*,#333,.F.);
#279=ORIENTED_EDGE('',*,*,#331,.T.);
#280=ORIENTED_EDGE('',*,*,#329,.F.);
#281=CARTESIAN_POINT('',(-50.0,0.0,0.0));
#282=DIRECTION('',(-1.0,-0.0,0.0));
#283=DIRECTION('',(0.0,-1.0,-0.0));
#284=ORIENTED_EDGE('',*,*,#335,.T.);
#285=ORIENTED_EDGE('',*,*,#336,.T.);
#286=ORIENTED_EDGE('',*,*,#337,.T.);
#287=ORIENTED_EDGE('',*,*,#338,.T.);
#288=ORIENTED_EDGE('',*,*,#339,.T.);
#289=ORIENTED_EDGE('',*,*,#340,.T.);
#290=ORIENTED_EDGE('',*,*,#341,.T.);
#291=ORIENTED_EDGE('',*,*,#342,.T.);
#292=CARTESIAN_POINT('',(10.0,-60.0,0.0));
#293=DIRECTION('',(0.0,1.0,0.0));
#294=DIRECTION('',(0.0,0.0,1.0));
#295=EDGE_CURVE('',#343,#344,#345,.T.);
#296=EDGE_CURVE('',#346,#344,#347,.T.);
#297=EDGE_CURVE('',#346,#348,#349,.T.);
#298=EDGE_CURVE('',#343,#348,#350,.T.);
#299=EDGE_CURVE('',#351,#343,#352,.T.);
#300=EDGE_CURVE('',#348,#353,#354,.T.);
#301=EDGE_CURVE('',#353,#351,#355,.T.);
#302=EDGE_CURVE('',#356,#351,#357,.T.);
#303=EDGE_CURVE('',#353,#358,#359,.T.);
#304=EDGE_CURVE('',#356,#358,#360,.T.);
#305=EDGE_CURVE('',#361,#356,#362,.T.);
#306=EDGE_CURVE('',#358,#363,#364,.T.);
#307=EDGE_CURVE('',#363,#361,#365,.T.);
#308=EDGE_CURVE('',#366,#361,#367,.T.);
#309=EDGE_CURVE('',#368,#363,#369,.T.);
#310=EDGE_CURVE('',#366,#368,#370,.T.);
#311=EDGE_CURVE('',#371,#366,#372,.T.);
#312=EDGE_CURVE('',#373,#371,#374,.T.);
#313=EDGE_CURVE('',#361,#373,#375,.T.);
#314=EDGE_CURVE('',#373,#376,#377,.T.);
#315=EDGE_CURVE('',#376,#356,#378,.T.);
#316=EDGE_CURVE('',#379,#376,#380,.T.);
#317=EDGE_CURVE('',#351,#379,#381,.T.);
#318=EDGE_CURVE('',#379,#382,#383,.T.);
#319=EDGE_CURVE('',#382,#343,#384,.T.);
#320=EDGE_CURVE('',#382,#385,#386,.T.);
#321=EDGE_CURVE('',#344,#385,#387,.T.);
#322=EDGE_CURVE('',#344,#388,#389,.T.);
#323=EDGE_CURVE('',#388,#390,#391,.T.);
#324=EDGE_CURVE('',#390,#346,#392,.T.);
#325=EDGE_CURVE('',#368,#393,#394,.T.);
#326=EDGE_CURVE('',#390,#393,#395,.T.);
#327=EDGE_CURVE('',#396,#366,#397,.T.);
#328=EDGE_CURVE('',#393,#396,#398,.T.);
#329=EDGE_CURVE('',#396,#399,#400,.T.);
#330=EDGE_CURVE('',#399,#371,#401,.T.);
#331=EDGE_CURVE('',#402,#399,#403,.T.);
#332=EDGE_CURVE('',#385,#402,#404,.T.);
#333=EDGE_CURVE('',#402,#388,#405,.T.);
#334=EDGE_CURVE('',#388,#396,#406,.T.);
#335=EDGE_CURVE('',#407,#408,#409,.T.);
#336=EDGE_CURVE('',#408,#410,#411,.T.);
#337=EDGE_CURVE('',#410,#412,#413,.T.);
#338=EDGE_CURVE('',#412,#414,#415,.T.);
#339=EDGE_CURVE('',#414,#416,#417,.T.);
#340=EDGE_CURVE('',#416,#418,#419,.T.);
#341=EDGE_CURVE('',#418,#420,#421,.T.);
#342=EDGE_CURVE('',#420,#407,#422,.T.);
#343=VERTEX_POINT('',#423);
#344=VERTEX_POINT('',#424);
#345=LINE('',#425,#426);
#346=VERTEX_POINT('',#427);
#347=LINE('',#428,#429);
#348=VERTEX_POINT('',#430);
#349=LINE('',#431,#432);
#350=LINE('',#433,#434);
#351=VERTEX_POINT('',#435);
#352=LINE('',#436,#437);
#353=VERTEX_POINT('',#438);
#354=LINE('',#439,#440);
#355=LINE('',#441,#442);
#356=VERTEX_POINT('',#443);
#357=LINE('',#444,#445);
#358=VERTEX_POINT('',#446);
#359=LINE('',#447,#448);
#360=LINE('',#449,#450);
#361=VERTEX_POINT('',#451);
#362=LINE('',#452,#453);
#363=VERTEX_POINT('',#454);
#364=LINE('',#455,#456);
#365=LINE('',#457,#458);
#366=VERTEX_POINT('',#459);
#367=LINE('',#460,#461);
#368=VERTEX_POINT('',#462);
#369=LINE('',#463,#464);
#370=LINE('',#465,#466);
#371=VERTEX_POINT('',#467);
#372=LINE('',#468,#469);
#373=VERTEX_POINT('',#470);
#374=LINE('',#471,#472);
#375=LINE('',#473,#474);
#376=VERTEX_POINT('',#475);
#377=LINE('',#476,#477);
#378=LINE('',#478,#479);
#379=VERTEX_POINT('',#480);
#380=LINE('',#481,#482);
#381=LINE('',#483,#484);
#382=VERTEX_POINT('',#485);
#383=LINE('',#486,#487);
#384=LINE('',#488,#489);
#385=VERTEX_POINT('',#490);
#386=LINE('',#491,#492);
#387=LINE('',#493,#494);
#388=VERTEX_POINT('',#495);
#389=LINE('',#496,#497);
#390=VERTEX_POINT('',#498);
#391=LINE('',#499,#500);
#392=LINE('',#501,#502);
#393=VERTEX_POINT('',#503);
#394=LINE('',#504,#505);
#395=LINE('',#506,#507);
#396=VERTEX_POINT('',#508);
#397=LINE('',#509,#510);
#398=LINE('',#511,#512);
#399=VERTEX_POINT('',#513);
#400=LINE('',#514,#515);
#401=LINE('',#516,#517);
#402=VERTEX_POINT('',#518);
#403=LINE('',#519,#520);
#404=LINE('',#521,#522);
#405=LINE('',#523,#524);
#406=LINE('',#525,#526);
#407=VERTEX_POINT('',#527);
#408=VERTEX_POINT('',#528);
#409=LINE('',#529,#530);
#410=VERTEX_POINT('',#531);
#411=LINE('',#532,#533);
#412=VERTEX_POINT('',#534);
#413=LINE('',#535,#536);
#414=VERTEX_POINT('',#537);
#415=LINE('',#538,#539);
#416=VERTEX_POINT('',#540);
#417=LINE('',#541,#542);
#418=VERTEX_POINT('',#543);
#419=LINE('',#544,#545);
#420=VERTEX_POINT('',#546);
#421=LINE('',#547,#548);
#422=LINE('',#549,#550);
#423=CARTESIAN_POINT('',(45.0,-60.0,0.0));
#424=CARTESIAN_POINT('',(-45.0,-60.0,0.0));
#425=CARTESIAN_POINT('',(5.0,-60.0,0.0));
#426=VECTOR('',#551,1.0);
#427=CARTESIAN_POINT('',(-45.0,100.0,0.0));
#428=CARTESIAN_POINT('',(-45.0,0.0,0.0));
#429=VECTOR('',#552,1.0);
#430=CARTESIAN_POINT('',(45.0,100.0,0.0));
#431=CARTESIAN_POINT('',(-50.0,100.0,0.0));
#432=VECTOR('',#553,1.0);
#433=CARTESIAN_POINT('',(45.0,0.0,0.0));
#434=VECTOR('',#554,1.0);
#435=CARTESIAN_POINT('',(50.0,-60.0,5.0));
#436=CARTESIAN_POINT('',(37.5,-60.0,-7.5));
#437=VECTOR('',#555,1.0);
#438=CARTESIAN_POINT('',(50.0,100.0,5.0));
#439=CARTESIAN_POINT('',(35.0,100.0,-10.0));
#440=VECTOR('',#556,1.0);
#441=CARTESIAN_POINT('',(50.0,0.0,5.0));
#442=VECTOR('',#557,1.0);
#443=CARTESIAN_POINT('',(50.0,-60.0,55.0));
#444=CARTESIAN_POINT('',(50.0,-60.0,0.0));
#445=VECTOR('',#558,1.0);
#446=CARTESIAN_POINT('',(50.0,100.0,55.0));
#447=CARTESIAN_POINT('',(50.0,100.0,0.0));
#448=VECTOR('',#559,1.0);
#449=CARTESIAN_POINT('',(50.0,0.0,55.0));
#450=VECTOR('',#560,1.0);
#451=CARTESIAN_POINT('',(45.0,-60.0,60.0));
#452=CARTESIAN_POINT('',(52.5,-60.0,52.5));
#453=VECTOR('',#561,1.0);
#454=CARTESIAN_POINT('',(45.0,100.0,60.0));
#455=CARTESIAN_POINT('',(50.0,100.0,55.0));
#456=VECTOR('',#562,1.0);
#457=CARTESIAN_POINT('',(45.0,0.0,60.0));
#458=VECTOR('',#563,1.0);
#459=CARTESIAN_POINT('',(-45.0,-60.0,60.0));
#460=CARTESIAN_POINT('',(5.0,-60.0,60.0));
#461=VECTOR('',#564,1.0);
#462=CARTESIAN_POINT('',(-45.0,100.0,60.0));
#463=CARTESIAN_POINT('',(-50.0,100.0,60.0));
#464=VECTOR('',#565,1.0);
#465=CARTESIAN_POINT('',(-45.0,0.0,60.0));
#466=VECTOR('',#566,1.0);
#467=CARTESIAN_POINT('',(-45.0,-100.0,60.0));
#468=CARTESIAN_POINT('',(-45.0,0.0,60.0));
#469=VECTOR('',#567,1.0);
#470=CARTESIAN_POINT('',(45.0,-100.0,60.0));
#471=CARTESIAN_POINT('',(50.0,-100.0,60.0));
#472=VECTOR('',#568,1.0);
#473=CARTESIAN_POINT('',(45.0,0.0,60.0));
#474=VECTOR('',#569,1.0);
#475=CARTESIAN_POINT('',(50.0,-100.0,55.0));
#476=CARTESIAN_POINT('',(50.0,-100.0,55.0));
#477=VECTOR('',#570,1.0);
#478=CARTESIAN_POINT('',(50.0,0.0,55.0));
#479=VECTOR('',#571,1.0);
#480=CARTESIAN_POINT('',(50.0,-100.0,5.0));
#481=CARTESIAN_POINT('',(50.0,-100.0,0.0));
#482=VECTOR('',#572,1.0);
#483=CARTESIAN_POINT('',(50.0,0.0,5.0));
#484=VECTOR('',#573,1.0);
#485=CARTESIAN_POINT('',(45.0,-100.0,0.0));
#486=CARTESIAN_POINT('',(35.0,-100.0,-10.0));
#487=VECTOR('',#574,1.0);
#488=CARTESIAN_POINT('',(45.0,0.0,0.0));
#489=VECTOR('',#575,1.0);
#490=CARTESIAN_POINT('',(-45.0,-100.0,0.0));
#491=CARTESIAN_POINT('',(50.0,-100.0,0.0));
#492=VECTOR('',#576,1.0);
#493=CARTESIAN_POINT('',(-45.0,0.0,0.0));
#494=VECTOR('',#577,1.0);
#495=CARTESIAN_POINT('',(-50.0,-60.0,5.0));
#496=CARTESIAN_POINT('',(-32.5,-60.0,-12.5));
#497=VECTOR('',#578,1.0);
#498=CARTESIAN_POINT('',(-50.0,100.0,5.0));
#499=CARTESIAN_POINT('',(-50.0,0.0,5.0));
#500=VECTOR('',#579,1.0);
#501=CARTESIAN_POINT('',(-35.0,100.0,-10.0));
#502=VECTOR('',#580,1.0);
#503=CARTESIAN_POINT('',(-50.0,100.0,55.0));
#504=CARTESIAN_POINT('',(-50.0,100.0,55.0));
#505=VECTOR('',#581,1.0);
#506=CARTESIAN_POINT('',(-50.0,100.0,0.0));
#507=VECTOR('',#582,1.0);
#508=CARTESIAN_POINT('',(-50.0,-60.0,55.0));
#509=CARTESIAN_POINT('',(-47.5,-60.0,57.5));
#510=VECTOR('',#583,1.0);
#511=CARTESIAN_POINT('',(-50.0,0.0,55.0));
#512=VECTOR('',#584,1.0);
#513=CARTESIAN_POINT('',(-50.0,-100.0,55.0));
#514=CARTESIAN_POINT('',(-50.0,0.0,55.0));
#515=VECTOR('',#585,1.0);
#516=CARTESIAN_POINT('',(-50.0,-100.0,55.0));
#517=VECTOR('',#586,1.0);
#518=CARTESIAN_POINT('',(-50.0,-100.0,5.0));
#519=CARTESIAN_POINT('',(-50.0,-100.0,0.0));
#520=VECTOR('',#587,1.0);
#521=CARTESIAN_POINT('',(-35.0,-100.0,-10.0));
#522=VECTOR('',#588,1.0);
#523=CARTESIAN_POINT('',(-50.0,0.0,5.0));
#524=VECTOR('',#589,1.0);
#525=CARTESIAN_POINT('',(-50.0,-60.0,0.0));
#526=VECTOR('',#590,1.0);
#527=CARTESIAN_POINT('',(50.0,-60.0,55.0));
#528=CARTESIAN_POINT('',(50.0,-60.0,5.0));
#529=CARTESIAN_POINT('',(50.0,-60.0,0.0));
#530=VECTOR('',#591,1.0);
#531=CARTESIAN_POINT('',(45.0,-60.0,0.0));
#532=CARTESIAN_POINT('',(37.5,-60.0,-7.5));
#533=VECTOR('',#592,1.0);
#534=CARTESIAN_POINT('',(-45.0,-60.0,0.0));
#535=CARTESIAN_POINT('',(5.0,-60.0,0.0));
#536=VECTOR('',#593,1.0);
#537=CARTESIAN_POINT('',(-50.0,-60.0,5.0));
#538=CARTESIAN_POINT('',(-32.5,-60.0,-12.5));
#539=VECTOR('',#594,1.0);
#540=CARTESIAN_POINT('',(-50.0,-60.0,55.0));
#541=CARTESIAN_POINT('',(-50.0,-60.0,0.0));
#542=VECTOR('',#595,1.0);
#543=CARTESIAN_POINT('',(-45.0,-60.0,60.0));
#544=CARTESIAN_POINT('',(-47.5,-60.0,57.5));
#545=VECTOR('',#596,1.0);
#546=CARTESIAN_POINT('',(45.0,-60.0,60.0));
#547=CARTESIAN_POINT('',(5.0,-60.0,60.0));
#548=VECTOR('',#597,1.0);
#549=CARTESIAN_POINT('',(52.5,-60.0,52.5));
#550=VECTOR('',#598,1.0);
#551=DIRECTION('',(-1.0,0.0,0.0));
#552=DIRECTION('',(-0.0,-1.0,-0.0));
#553=DIRECTION('',(1.0,0.0,0.0));
#554=DIRECTION('',(-0.0,1.0,-0.0));
#555=DIRECTION('',(-0.707106781186547,0.0,-0.707106781186547));
#556=DIRECTION('',(0.707106781186547,-0.0,0.707106781186547));
#557=DIRECTION('',(0.0,-1.0,0.0));
#558=DIRECTION('',(-0.0,0.0,-1.0));
#559=DIRECTION('',(0.0,0.0,1.0));
#560=DIRECTION('',(-0.0,1.0,-0.0));
#561=DIRECTION('',(0.707106781186547,0.0,-0.707106781186547));
#562=DIRECTION('',(-0.707106781186547,0.0,0.707106781186547));
#563=DIRECTION('',(0.0,-1.0,0.0));
#564=DIRECTION('',(1.0,0.0,0.0));
#565=DIRECTION('',(1.0,0.0,0.0));
#566=DIRECTION('',(0.0,1.0,-0.0));
#567=DIRECTION('',(0.0,1.0,-0.0));
#568=DIRECTION('',(-1.0,0.0,0.0));
#569=DIRECTION('',(0.0,-1.0,0.0));
#570=DIRECTION('',(0.707106781186547,0.0,-0.707106781186547));
#571=DIRECTION('',(-0.0,1.0,-0.0));
#572=DIRECTION('',(0.0,0.0,1.0));
#573=DIRECTION('',(0.0,-1.0,0.0));
#574=DIRECTION('',(-0.707106781186547,-0.0,-0.707106781186547));
#575=DIRECTION('',(-0.0,1.0,-0.0));
#576=DIRECTION('',(-1.0,0.0,0.0));
#577=DIRECTION('',(-0.0,-1.0,-0.0));
#578=DIRECTION('',(-0.707106781186547,0.0,0.707106781186547));
#579=DIRECTION('',(0.0,1.0,-0.0));
#580=DIRECTION('',(0.707106781186547,0.0,-0.707106781186547));
#581=DIRECTION('',(-0.707106781186547,0.0,-0.707106781186547));
#582=DIRECTION('',(0.0,0.0,1.0));
#583=DIRECTION('',(0.707106781186547,-0.0,0.707106781186547));
#584=DIRECTION('',(-0.0,-1.0,0.0));
#585=DIRECTION('',(-0.0,-1.0,0.0));
#586=DIRECTION('',(0.707106781186547,0.0,0.707106781186547));
#587=DIRECTION('',(0.0,0.0,1.0));
#588=DIRECTION('',(-0.707106781186547,0.0,0.707106781186547));
#589=DIRECTION('',(0.0,1.0,-0.0));
#590=DIRECTION('',(0.0,-0.0,1.0));
#591=DIRECTION('',(-0.0,0.0,-1.0));
#592=DIRECTION('',(-0.707106781186547,0.0,-0.707106781186547));
#593=DIRECTION('',(-1.0,0.0,0.0));
#594=DIRECTION('',(-0.707106781186547,0.0,0.707106781186547));
#595=DIRECTION('',(0.0,-0.0,1.0));
#596=DIRECTION('',(0.707106781186547,-0.0,0.707106781186547));
#597=DIRECTION('',(1.0,0.0,0.0));
#598=DIRECTION('',(0.707106781186547,0.0,-0.707106781186547));
ENDSEC;
END-ISO-10303-21;
