ISO-10303-21;
HEADER;
FILE_DESCRIPTION(('STEP AP214'),'1');
FILE_NAME('Side_block.stp','2025-08-25T06:57:00',(' '),(' '),'Spatial InterOp 3D',' ',' ');
FILE_SCHEMA(('AUTOMOTIVE_DESIGN { 1 0 10303 214 1 1 1 1 }'));
ENDSEC;
DATA;
#1=PRODUCT_DEFINITION_CONTEXT('',#10,'design');
#2=APPLICATION_PROTOCOL_DEFINITION('INTERNATIONAL STANDARD','automotive_design',1994,#10);
#3=PRODUCT_CATEGORY_RELATIONSHIP('NONE','NONE',#11,#12);
#4=SHAPE_DEFINITION_REPRESENTATION(#13,#14);
#5=SHAPE_DEFINITION_REPRESENTATION(#13,#15);
#6= (GEOMETRIC_REPRESENTATION_CONTEXT(3)GLOBAL_UNCERTAINTY_ASSIGNED_CONTEXT((#18))GLOBAL_UNIT_ASSIGNED_CONTEXT((#20,#21,#22))REPRESENTATION_CONTEXT('NONE','WORKSPACE'));
#10=APPLICATION_CONTEXT(' ');
#11=PRODUCT_CATEGORY('part','NONE');
#12=PRODUCT_RELATED_PRODUCT_CATEGORY('detail',' ',(#24));
#13=PRODUCT_DEFINITION_SHAPE('NONE','NONE',#25);
#14=ADVANCED_BREP_SHAPE_REPRESENTATION('1',(#26,#27),#6);
#15=MANIFOLD_SURFACE_SHAPE_REPRESENTATION('2',(#28,#29),#6);
#18=UNCERTAINTY_MEASURE_WITH_UNIT(LENGTH_MEASURE(1.0E-06),#20,'','');
#20= (CONVERSION_BASED_UNIT('MILLIMETRE',#32)LENGTH_UNIT()NAMED_UNIT(#35));
#21= (NAMED_UNIT(#37)PLANE_ANGLE_UNIT()SI_UNIT($,.RADIAN.));
#22= (NAMED_UNIT(#37)SOLID_ANGLE_UNIT()SI_UNIT($,.STERADIAN.));
#24=PRODUCT('1','','PART--DESC',(#43));
#25=PRODUCT_DEFINITION('','NONE',#44,#1);
#26=MANIFOLD_SOLID_BREP('1',#45);
#27=AXIS2_PLACEMENT_3D('',#46,#47,#48);
#28=SHELL_BASED_SURFACE_MODEL('2',(#49));
#29=AXIS2_PLACEMENT_3D('',#50,#51,#52);
#32=LENGTH_MEASURE_WITH_UNIT(LENGTH_MEASURE(1.0),#53);
#35=DIMENSIONAL_EXPONENTS(1.0,0.0,0.0,0.0,0.0,0.0,0.0);
#37=DIMENSIONAL_EXPONENTS(0.0,0.0,0.0,0.0,0.0,0.0,0.0);
#43=PRODUCT_CONTEXT('',#10,'mechanical');
#44=PRODUCT_DEFINITION_FORMATION_WITH_SPECIFIED_SOURCE(' ','NONE',#24,.NOT_KNOWN.);
#45=CLOSED_SHELL('',(#54,#55,#56,#57,#58,#59,#60,#61,#62,#63,#64,#65));
#46=CARTESIAN_POINT('',(0.0,0.0,0.0));
#47=DIRECTION('',(0.0,0.0,1.0));
#48=DIRECTION('',(1.0,0.0,0.0));
#49=CLOSED_SHELL('',(#66));
#50=CARTESIAN_POINT('',(0.0,0.0,0.0));
#51=DIRECTION('',(0.0,0.0,1.0));
#52=DIRECTION('',(1.0,0.0,0.0));
#53= (NAMED_UNIT(#35)LENGTH_UNIT()SI_UNIT(.MILLI.,.METRE.));
#54=ADVANCED_FACE('',(#68),#69,.F.);
#55=ADVANCED_FACE('',(#70),#71,.F.);
#56=ADVANCED_FACE('',(#72),#73,.T.);
#57=ADVANCED_FACE('',(#74),#75,.T.);
#58=ADVANCED_FACE('',(#76),#77,.T.);
#59=ADVANCED_FACE('',(#78),#79,.T.);
#60=ADVANCED_FACE('',(#80),#81,.T.);
#61=ADVANCED_FACE('',(#82),#83,.T.);
#62=ADVANCED_FACE('',(#84),#85,.T.);
#63=ADVANCED_FACE('',(#86),#87,.T.);
#64=ADVANCED_FACE('',(#88),#89,.T.);
#65=ADVANCED_FACE('',(#90),#91,.T.);
#66=FACE_SURFACE('',(#92),#93,.T.);
#68=FACE_OUTER_BOUND('',#94,.T.);
#69=PLANE('',#95);
#70=FACE_OUTER_BOUND('',#96,.T.);
#71=PLANE('',#97);
#72=FACE_OUTER_BOUND('',#98,.T.);
#73=PLANE('',#99);
#74=FACE_OUTER_BOUND('',#100,.T.);
#75=PLANE('',#101);
#76=FACE_OUTER_BOUND('',#102,.T.);
#77=PLANE('',#103);
#78=FACE_OUTER_BOUND('',#104,.T.);
#79=PLANE('',#105);
#80=FACE_OUTER_BOUND('',#106,.T.);
#81=PLANE('',#107);
#82=FACE_OUTER_BOUND('',#108,.T.);
#83=PLANE('',#109);
#84=FACE_OUTER_BOUND('',#110,.T.);
#85=PLANE('',#111);
#86=FACE_OUTER_BOUND('',#112,.T.);
#87=PLANE('',#113);
#88=FACE_OUTER_BOUND('',#114,.T.);
#89=PLANE('',#115);
#90=FACE_OUTER_BOUND('',#116,.T.);
#91=PLANE('',#117);
#92=FACE_BOUND('',#118,.T.);
#93=PLANE('',#119);
#94=EDGE_LOOP('',(#120,#121,#122,#123,#124));
#95=AXIS2_PLACEMENT_3D('',#125,#126,#127);
#96=EDGE_LOOP('',(#128,#129,#130,#131,#132));
#97=AXIS2_PLACEMENT_3D('',#133,#134,#135);
#98=EDGE_LOOP('',(#136,#137,#138,#139));
#99=AXIS2_PLACEMENT_3D('',#140,#141,#142);
#100=EDGE_LOOP('',(#143,#144,#145,#146));
#101=AXIS2_PLACEMENT_3D('',#147,#148,#149);
#102=EDGE_LOOP('',(#150,#151,#152,#153));
#103=AXIS2_PLACEMENT_3D('',#154,#155,#156);
#104=EDGE_LOOP('',(#157,#158,#159,#160));
#105=AXIS2_PLACEMENT_3D('',#161,#162,#163);
#106=EDGE_LOOP('',(#164,#165,#166,#167));
#107=AXIS2_PLACEMENT_3D('',#168,#169,#170);
#108=EDGE_LOOP('',(#171,#172,#173,#174));
#109=AXIS2_PLACEMENT_3D('',#175,#176,#177);
#110=EDGE_LOOP('',(#178,#179,#180,#181));
#111=AXIS2_PLACEMENT_3D('',#182,#183,#184);
#112=EDGE_LOOP('',(#185,#186,#187,#188));
#113=AXIS2_PLACEMENT_3D('',#189,#190,#191);
#114=EDGE_LOOP('',(#192,#193,#194,#195,#196));
#115=AXIS2_PLACEMENT_3D('',#197,#198,#199);
#116=EDGE_LOOP('',(#200,#201,#202,#203,#204));
#117=AXIS2_PLACEMENT_3D('',#205,#206,#207);
#118=EDGE_LOOP('',(#208,#209,#210,#211));
#119=AXIS2_PLACEMENT_3D('',#212,#213,#214);
#120=ORIENTED_EDGE('',*,*,#215,.T.);
#121=ORIENTED_EDGE('',*,*,#216,.F.);
#122=ORIENTED_EDGE('',*,*,#217,.F.);
#123=ORIENTED_EDGE('',*,*,#218,.F.);
#124=ORIENTED_EDGE('',*,*,#219,.F.);
#125=CARTESIAN_POINT('',(-0.589814638523831,0.0,0.0));
#126=DIRECTION('',(0.0,0.0,1.0));
#127=DIRECTION('',(1.0,0.0,0.0));
#128=ORIENTED_EDGE('',*,*,#215,.F.);
#129=ORIENTED_EDGE('',*,*,#220,.F.);
#130=ORIENTED_EDGE('',*,*,#221,.F.);
#131=ORIENTED_EDGE('',*,*,#222,.F.);
#132=ORIENTED_EDGE('',*,*,#223,.F.);
#133=CARTESIAN_POINT('',(-0.589814638523831,0.0,0.0));
#134=DIRECTION('',(0.0,0.0,1.0));
#135=DIRECTION('',(1.0,0.0,0.0));
#136=ORIENTED_EDGE('',*,*,#224,.T.);
#137=ORIENTED_EDGE('',*,*,#225,.T.);
#138=ORIENTED_EDGE('',*,*,#226,.F.);
#139=ORIENTED_EDGE('',*,*,#216,.T.);
#140=CARTESIAN_POINT('',(-50.0,0.0,0.0));
#141=DIRECTION('',(-1.0,0.0,0.0));
#142=DIRECTION('',(0.0,-1.0,0.0));
#143=ORIENTED_EDGE('',*,*,#227,.T.);
#144=ORIENTED_EDGE('',*,*,#228,.F.);
#145=ORIENTED_EDGE('',*,*,#217,.T.);
#146=ORIENTED_EDGE('',*,*,#226,.T.);
#147=CARTESIAN_POINT('',(-2.5,80.0,0.0));
#148=DIRECTION('',(0.0,1.0,-0.0));
#149=DIRECTION('',(-1.0,0.0,0.0));
#150=ORIENTED_EDGE('',*,*,#229,.T.);
#151=ORIENTED_EDGE('',*,*,#230,.F.);
#152=ORIENTED_EDGE('',*,*,#218,.T.);
#153=ORIENTED_EDGE('',*,*,#228,.T.);
#154=CARTESIAN_POINT('',(47.5,77.5,0.0));
#155=DIRECTION('',(0.707106781186547,0.707106781186547,-0.0));
#156=DIRECTION('',(-0.707106781186548,0.707106781186548,0.0));
#157=ORIENTED_EDGE('',*,*,#231,.T.);
#158=ORIENTED_EDGE('',*,*,#219,.T.);
#159=ORIENTED_EDGE('',*,*,#230,.T.);
#160=ORIENTED_EDGE('',*,*,#232,.T.);
#161=CARTESIAN_POINT('',(50.0,0.0,0.0));
#162=DIRECTION('',(1.0,0.0,0.0));
#163=DIRECTION('',(0.0,1.0,0.0));
#164=ORIENTED_EDGE('',*,*,#231,.F.);
#165=ORIENTED_EDGE('',*,*,#233,.T.);
#166=ORIENTED_EDGE('',*,*,#234,.F.);
#167=ORIENTED_EDGE('',*,*,#220,.T.);
#168=CARTESIAN_POINT('',(50.0,0.0,0.0));
#169=DIRECTION('',(1.0,0.0,0.0));
#170=DIRECTION('',(0.0,1.0,0.0));
#171=ORIENTED_EDGE('',*,*,#235,.T.);
#172=ORIENTED_EDGE('',*,*,#236,.F.);
#173=ORIENTED_EDGE('',*,*,#221,.T.);
#174=ORIENTED_EDGE('',*,*,#234,.T.);
#175=CARTESIAN_POINT('',(47.5,-77.5,0.0));
#176=DIRECTION('',(0.707106781186547,-0.707106781186547,0.0));
#177=DIRECTION('',(0.707106781186548,0.707106781186548,0.0));
#178=ORIENTED_EDGE('',*,*,#237,.T.);
#179=ORIENTED_EDGE('',*,*,#238,.F.);
#180=ORIENTED_EDGE('',*,*,#222,.T.);
#181=ORIENTED_EDGE('',*,*,#236,.T.);
#182=CARTESIAN_POINT('',(-2.5,-80.0,0.0));
#183=DIRECTION('',(0.0,-1.0,0.0));
#184=DIRECTION('',(1.0,0.0,0.0));
#185=ORIENTED_EDGE('',*,*,#224,.F.);
#186=ORIENTED_EDGE('',*,*,#223,.T.);
#187=ORIENTED_EDGE('',*,*,#238,.T.);
#188=ORIENTED_EDGE('',*,*,#239,.T.);
#189=CARTESIAN_POINT('',(-50.0,0.0,0.0));
#190=DIRECTION('',(-1.0,0.0,0.0));
#191=DIRECTION('',(0.0,-1.0,0.0));
#192=ORIENTED_EDGE('',*,*,#240,.T.);
#193=ORIENTED_EDGE('',*,*,#232,.F.);
#194=ORIENTED_EDGE('',*,*,#229,.F.);
#195=ORIENTED_EDGE('',*,*,#227,.F.);
#196=ORIENTED_EDGE('',*,*,#225,.F.);
#197=CARTESIAN_POINT('',(-0.589814638523831,0.0,50.0));
#198=DIRECTION('',(0.0,0.0,1.0));
#199=DIRECTION('',(1.0,0.0,0.0));
#200=ORIENTED_EDGE('',*,*,#240,.F.);
#201=ORIENTED_EDGE('',*,*,#239,.F.);
#202=ORIENTED_EDGE('',*,*,#237,.F.);
#203=ORIENTED_EDGE('',*,*,#235,.F.);
#204=ORIENTED_EDGE('',*,*,#233,.F.);
#205=CARTESIAN_POINT('',(-0.589814638523831,0.0,50.0));
#206=DIRECTION('',(0.0,0.0,1.0));
#207=DIRECTION('',(1.0,0.0,0.0));
#208=ORIENTED_EDGE('',*,*,#241,.T.);
#209=ORIENTED_EDGE('',*,*,#242,.T.);
#210=ORIENTED_EDGE('',*,*,#243,.T.);
#211=ORIENTED_EDGE('',*,*,#244,.T.);
#212=CARTESIAN_POINT('',(10.0,-40.0,0.0));
#213=DIRECTION('',(0.0,1.0,0.0));
#214=DIRECTION('',(0.0,0.0,1.0));
#215=EDGE_CURVE('',#245,#246,#247,.T.);
#216=EDGE_CURVE('',#248,#246,#249,.T.);
#217=EDGE_CURVE('',#250,#248,#251,.T.);
#218=EDGE_CURVE('',#252,#250,#253,.T.);
#219=EDGE_CURVE('',#245,#252,#254,.T.);
#220=EDGE_CURVE('',#255,#245,#256,.T.);
#221=EDGE_CURVE('',#257,#255,#258,.T.);
#222=EDGE_CURVE('',#259,#257,#260,.T.);
#223=EDGE_CURVE('',#246,#259,#261,.T.);
#224=EDGE_CURVE('',#246,#262,#263,.T.);
#225=EDGE_CURVE('',#262,#264,#265,.T.);
#226=EDGE_CURVE('',#248,#264,#266,.T.);
#227=EDGE_CURVE('',#264,#267,#268,.T.);
#228=EDGE_CURVE('',#250,#267,#269,.T.);
#229=EDGE_CURVE('',#267,#270,#271,.T.);
#230=EDGE_CURVE('',#252,#270,#272,.T.);
#231=EDGE_CURVE('',#273,#245,#274,.T.);
#232=EDGE_CURVE('',#270,#273,#275,.T.);
#233=EDGE_CURVE('',#273,#276,#277,.T.);
#234=EDGE_CURVE('',#255,#276,#278,.T.);
#235=EDGE_CURVE('',#276,#279,#280,.T.);
#236=EDGE_CURVE('',#257,#279,#281,.T.);
#237=EDGE_CURVE('',#279,#282,#283,.T.);
#238=EDGE_CURVE('',#259,#282,#284,.T.);
#239=EDGE_CURVE('',#282,#262,#285,.T.);
#240=EDGE_CURVE('',#262,#273,#286,.T.);
#241=EDGE_CURVE('',#287,#288,#289,.T.);
#242=EDGE_CURVE('',#288,#290,#291,.T.);
#243=EDGE_CURVE('',#290,#292,#293,.T.);
#244=EDGE_CURVE('',#292,#287,#294,.T.);
#245=VERTEX_POINT('',#295);
#246=VERTEX_POINT('',#296);
#247=LINE('',#297,#298);
#248=VERTEX_POINT('',#299);
#249=LINE('',#300,#301);
#250=VERTEX_POINT('',#302);
#251=LINE('',#303,#304);
#252=VERTEX_POINT('',#305);
#253=LINE('',#306,#307);
#254=LINE('',#308,#309);
#255=VERTEX_POINT('',#310);
#256=LINE('',#311,#312);
#257=VERTEX_POINT('',#313);
#258=LINE('',#314,#315);
#259=VERTEX_POINT('',#316);
#260=LINE('',#317,#318);
#261=LINE('',#319,#320);
#262=VERTEX_POINT('',#321);
#263=LINE('',#322,#323);
#264=VERTEX_POINT('',#324);
#265=LINE('',#325,#326);
#266=LINE('',#327,#328);
#267=VERTEX_POINT('',#329);
#268=LINE('',#330,#331);
#269=LINE('',#332,#333);
#270=VERTEX_POINT('',#334);
#271=LINE('',#335,#336);
#272=LINE('',#337,#338);
#273=VERTEX_POINT('',#339);
#274=LINE('',#340,#341);
#275=LINE('',#342,#343);
#276=VERTEX_POINT('',#344);
#277=LINE('',#345,#346);
#278=LINE('',#347,#348);
#279=VERTEX_POINT('',#349);
#280=LINE('',#350,#351);
#281=LINE('',#352,#353);
#282=VERTEX_POINT('',#354);
#283=LINE('',#355,#356);
#284=LINE('',#357,#358);
#285=LINE('',#359,#360);
#286=LINE('',#361,#362);
#287=VERTEX_POINT('',#363);
#288=VERTEX_POINT('',#364);
#289=LINE('',#365,#366);
#290=VERTEX_POINT('',#367);
#291=LINE('',#368,#369);
#292=VERTEX_POINT('',#370);
#293=LINE('',#371,#372);
#294=LINE('',#373,#374);
#295=CARTESIAN_POINT('',(50.0,-40.0,0.0));
#296=CARTESIAN_POINT('',(-50.0,-40.0,0.0));
#297=CARTESIAN_POINT('',(4.70509268073808,-40.0,0.0));
#298=VECTOR('',#375,1.0);
#299=CARTESIAN_POINT('',(-50.0,80.0,0.0));
#300=CARTESIAN_POINT('',(-50.0,80.0,0.0));
#301=VECTOR('',#376,1.0);
#302=CARTESIAN_POINT('',(45.0,80.0,0.0));
#303=CARTESIAN_POINT('',(45.0,80.0,0.0));
#304=VECTOR('',#377,1.0);
#305=CARTESIAN_POINT('',(50.0,75.0,0.0));
#306=CARTESIAN_POINT('',(50.0,75.0,0.0));
#307=VECTOR('',#378,1.0);
#308=CARTESIAN_POINT('',(50.0,-75.0,0.0));
#309=VECTOR('',#379,1.0);
#310=CARTESIAN_POINT('',(50.0,-75.0,0.0));
#311=CARTESIAN_POINT('',(50.0,-75.0,0.0));
#312=VECTOR('',#380,1.0);
#313=CARTESIAN_POINT('',(45.0,-80.0,0.0));
#314=CARTESIAN_POINT('',(45.0,-80.0,0.0));
#315=VECTOR('',#381,1.0);
#316=CARTESIAN_POINT('',(-50.0,-80.0,0.0));
#317=CARTESIAN_POINT('',(-50.0,-80.0,0.0));
#318=VECTOR('',#382,1.0);
#319=CARTESIAN_POINT('',(-50.0,80.0,0.0));
#320=VECTOR('',#383,1.0);
#321=CARTESIAN_POINT('',(-50.0,-40.0,50.0));
#322=CARTESIAN_POINT('',(-50.0,-40.0,0.0));
#323=VECTOR('',#384,1.0);
#324=CARTESIAN_POINT('',(-50.0,80.0,50.0));
#325=CARTESIAN_POINT('',(-50.0,80.0,50.0));
#326=VECTOR('',#385,1.0);
#327=CARTESIAN_POINT('',(-50.0,80.0,0.0));
#328=VECTOR('',#386,1.0);
#329=CARTESIAN_POINT('',(45.0,80.0,50.0));
#330=CARTESIAN_POINT('',(45.0,80.0,50.0));
#331=VECTOR('',#387,1.0);
#332=CARTESIAN_POINT('',(45.0,80.0,0.0));
#333=VECTOR('',#388,1.0);
#334=CARTESIAN_POINT('',(50.0,75.0,50.0));
#335=CARTESIAN_POINT('',(50.0,75.0,50.0));
#336=VECTOR('',#389,1.0);
#337=CARTESIAN_POINT('',(50.0,75.0,0.0));
#338=VECTOR('',#390,1.0);
#339=CARTESIAN_POINT('',(50.0,-40.0,50.0));
#340=CARTESIAN_POINT('',(50.0,-40.0,0.0));
#341=VECTOR('',#391,1.0);
#342=CARTESIAN_POINT('',(50.0,-75.0,50.0));
#343=VECTOR('',#392,1.0);
#344=CARTESIAN_POINT('',(50.0,-75.0,50.0));
#345=CARTESIAN_POINT('',(50.0,-75.0,50.0));
#346=VECTOR('',#393,1.0);
#347=CARTESIAN_POINT('',(50.0,-75.0,0.0));
#348=VECTOR('',#394,1.0);
#349=CARTESIAN_POINT('',(45.0,-80.0,50.0));
#350=CARTESIAN_POINT('',(45.0,-80.0,50.0));
#351=VECTOR('',#395,1.0);
#352=CARTESIAN_POINT('',(45.0,-80.0,0.0));
#353=VECTOR('',#396,1.0);
#354=CARTESIAN_POINT('',(-50.0,-80.0,50.0));
#355=CARTESIAN_POINT('',(-50.0,-80.0,50.0));
#356=VECTOR('',#397,1.0);
#357=CARTESIAN_POINT('',(-50.0,-80.0,0.0));
#358=VECTOR('',#398,1.0);
#359=CARTESIAN_POINT('',(-50.0,80.0,50.0));
#360=VECTOR('',#399,1.0);
#361=CARTESIAN_POINT('',(4.70509268073808,-40.0,50.0));
#362=VECTOR('',#400,1.0);
#363=CARTESIAN_POINT('',(-50.0,-40.0,50.0));
#364=CARTESIAN_POINT('',(50.0,-40.0,50.0));
#365=CARTESIAN_POINT('',(4.70509268073808,-40.0,50.0));
#366=VECTOR('',#401,1.0);
#367=CARTESIAN_POINT('',(50.0,-40.0,0.0));
#368=CARTESIAN_POINT('',(50.0,-40.0,0.0));
#369=VECTOR('',#402,1.0);
#370=CARTESIAN_POINT('',(-50.0,-40.0,0.0));
#371=CARTESIAN_POINT('',(4.70509268073808,-40.0,0.0));
#372=VECTOR('',#403,1.0);
#373=CARTESIAN_POINT('',(-50.0,-40.0,0.0));
#374=VECTOR('',#404,1.0);
#375=DIRECTION('',(-1.0,0.0,0.0));
#376=DIRECTION('',(0.0,-1.0,0.0));
#377=DIRECTION('',(-1.0,0.0,0.0));
#378=DIRECTION('',(-0.707106781186547,0.707106781186547,0.0));
#379=DIRECTION('',(0.0,1.0,0.0));
#380=DIRECTION('',(0.0,1.0,0.0));
#381=DIRECTION('',(0.707106781186547,0.707106781186547,0.0));
#382=DIRECTION('',(1.0,0.0,0.0));
#383=DIRECTION('',(0.0,-1.0,0.0));
#384=DIRECTION('',(0.0,-0.0,1.0));
#385=DIRECTION('',(0.0,1.0,0.0));
#386=DIRECTION('',(0.0,0.0,1.0));
#387=DIRECTION('',(1.0,0.0,0.0));
#388=DIRECTION('',(0.0,0.0,1.0));
#389=DIRECTION('',(0.707106781186548,-0.707106781186548,0.0));
#390=DIRECTION('',(0.0,0.0,1.0));
#391=DIRECTION('',(0.0,0.0,-1.0));
#392=DIRECTION('',(-0.0,-1.0,-0.0));
#393=DIRECTION('',(-0.0,-1.0,-0.0));
#394=DIRECTION('',(0.0,0.0,1.0));
#395=DIRECTION('',(-0.707106781186548,-0.707106781186548,-0.0));
#396=DIRECTION('',(0.0,0.0,1.0));
#397=DIRECTION('',(-1.0,-0.0,-0.0));
#398=DIRECTION('',(0.0,0.0,1.0));
#399=DIRECTION('',(0.0,1.0,0.0));
#400=DIRECTION('',(1.0,0.0,0.0));
#401=DIRECTION('',(1.0,0.0,0.0));
#402=DIRECTION('',(0.0,0.0,-1.0));
#403=DIRECTION('',(-1.0,0.0,0.0));
#404=DIRECTION('',(0.0,-0.0,1.0));
ENDSEC;
END-ISO-10303-21;
